<svg width="145" height="145" viewBox="0 0 145 145" fill="none" xmlns="http://www.w3.org/2000/svg">
<style>
  .eye1, .eye2 {
    transform-box: fill-box;
    transform-origin: center;
    transition: transform 0.3s ease;
  }
  svg:hover .eye1,
  svg:hover .eye2 {
    transform: scale(2.5);
  }
</style>

<g clip-path="url(#clip0_1_29)">
<path d="M62.9663 78.8478C62.9257 78.9328 62.8601 79.0107 62.775 79.0694L56.8787 83.1311C56.7926 83.1904 56.698 83.2228 56.6052 83.2298C56.4206 82.9274 56.2922 82.6021 56.2185 82.2658C55.908 80.8538 56.5557 79.2427 57.9434 78.2868C59.3321 77.3301 61.047 77.3137 62.226 78.1276C62.5068 78.321 62.7575 78.5621 62.9663 78.8478Z" fill="#FBB03B"/>
<path d="M62.9663 78.8478C62.9257 78.9328 62.8601 79.0107 62.775 79.0694L61.4484 79.9833C60.7168 80.1269 60.2336 80.1831 60.4099 80.0362C60.9503 79.5826 57.9434 78.2868 57.9434 78.2868C59.3321 77.3301 61.047 77.3137 62.226 78.1276C62.5068 78.321 62.7575 78.5621 62.9663 78.8478Z" fill="#DE841B"/>
<path d="M62.8571 78.2521L62.9465 78.3858C63.0376 78.5221 63.0396 78.6967 62.9663 78.8478C62.9257 78.9328 62.8601 79.0107 62.775 79.0694L56.8788 83.1311C56.7927 83.1904 56.698 83.2228 56.6052 83.2298C56.4397 83.2431 56.2795 83.1775 56.1883 83.0413L56.0989 82.9075C55.9672 82.7107 56.0226 82.4359 56.2185 82.2658C56.2354 82.2505 56.2533 82.237 56.2719 82.2242L62.1681 78.1625C62.1867 78.1497 62.2066 78.1372 62.226 78.1276C62.4546 78.0064 62.7259 78.0561 62.8571 78.2521Z" fill="#B31717"/>
<path d="M62.9663 78.8478C62.9257 78.9328 62.8601 79.0107 62.775 79.0694L56.8787 83.1311C56.7926 83.1904 56.698 83.2228 56.6052 83.2298C56.4206 82.9274 56.2922 82.6021 56.2185 82.2658C55.908 80.8538 56.5557 79.2427 57.9434 78.2868C59.3321 77.3301 61.047 77.3137 62.226 78.1276C62.5068 78.321 62.7575 78.5621 62.9663 78.8478Z" fill="#FBB03B"/>
<path d="M62.9663 78.8478C62.9257 78.9328 62.8601 79.0107 62.775 79.0694L61.4484 79.9833C60.7168 80.1269 60.2336 80.1831 60.4099 80.0362C60.9503 79.5826 57.9434 78.2868 57.9434 78.2868C59.3321 77.3301 61.047 77.3137 62.226 78.1276C62.5068 78.321 62.7575 78.5621 62.9663 78.8478Z" fill="#DE841B"/>
<path d="M64.754 82.1615L58.9808 86.1384C58.7088 86.3257 58.3559 86.2798 58.1927 86.0358L57.9919 85.7357C57.8285 85.4916 57.9167 85.142 58.1886 84.9546L63.9619 80.9777C64.2338 80.7902 64.5867 80.8361 64.75 81.0802L64.9508 81.3804C65.1141 81.6244 65.026 81.9741 64.754 82.1615Z" fill="#FBB03B"/>
<path d="M63.5387 80.2113L57.6428 84.2728C57.4046 84.4369 57.0958 84.3967 56.9529 84.1831L56.8635 84.0496C56.7206 83.836 56.7977 83.5299 57.0358 83.3659L62.9317 79.3044C63.1699 79.1403 63.4787 79.1805 63.6217 79.3941L63.711 79.5276C63.8539 79.7412 63.7769 80.0473 63.5387 80.2113Z" fill="#F3BA0C"/>
<path d="M63.8166 80.6266L57.9206 84.6881C57.6825 84.8522 57.3736 84.812 57.2307 84.5984L57.1414 84.4649C56.9985 84.2513 57.0756 83.9451 57.3137 83.7811L63.2096 79.7196C63.4477 79.5556 63.7567 79.5959 63.8996 79.8095L63.989 79.9429C64.1319 80.1565 64.0547 80.4626 63.8166 80.6266Z" fill="#009245"/>
<path d="M64.0389 80.9588L58.1431 85.0204C57.905 85.1844 57.596 85.1441 57.453 84.9306L57.3637 84.7971C57.2208 84.5835 57.298 84.2774 57.536 84.1133L63.432 80.0518C63.6701 79.8877 63.979 79.9281 64.1219 80.1416L64.2113 80.2751C64.3542 80.4887 64.277 80.7948 64.0389 80.9588Z" fill="#B31717"/>
<path d="M62.8571 78.2521L62.9465 78.3858C63.0376 78.5221 63.0396 78.6967 62.9663 78.8478C62.9257 78.9328 62.8601 79.0107 62.775 79.0694L56.8788 83.1311C56.7927 83.1904 56.698 83.2228 56.6052 83.2298C56.4397 83.2431 56.2795 83.1775 56.1883 83.0413L56.0989 82.9075C55.9672 82.7107 56.0226 82.4359 56.2185 82.2658C56.2354 82.2505 56.2533 82.237 56.2719 82.2242L62.1681 78.1625C62.1867 78.1497 62.2066 78.1372 62.226 78.1276C62.4546 78.0064 62.7259 78.0561 62.8571 78.2521Z" fill="#B31717"/>
<path d="M59.6189 81.6323L57.3197 83.2155C57.209 83.2918 57.0651 83.2731 56.9985 83.1735C56.9319 83.0741 56.9678 82.9316 57.0785 82.8552L59.3777 81.272C59.4885 81.1957 59.6323 81.2145 59.6989 81.314C59.7655 81.4135 59.7297 81.556 59.6189 81.6323Z" fill="#ED1C24"/>
<path d="M62.6894 79.5171L60.3902 81.1003C60.2794 81.1766 60.1356 81.1579 60.069 81.0584C60.0023 80.9589 60.0382 80.8164 60.149 80.7401L62.4482 79.1568C62.5589 79.0806 62.7028 79.0994 62.7693 79.1988C62.836 79.2983 62.8002 79.4408 62.6894 79.5171Z" fill="#ED1C24"/>
<path d="M62.9663 78.8478C62.9257 78.9328 62.8601 79.0107 62.775 79.0694L56.8787 83.1311C56.7926 83.1904 56.698 83.2228 56.6052 83.2298C56.4206 82.9274 56.2922 82.6021 56.2185 82.2658C55.908 80.8538 56.5557 79.2427 57.9434 78.2868C59.3321 77.3301 61.047 77.3137 62.226 78.1276C62.5068 78.321 62.7575 78.5621 62.9663 78.8478Z" fill="#FBB03B"/>
<path d="M62.8571 78.2521L62.9465 78.3858C63.0376 78.5221 63.0396 78.6967 62.9663 78.8478C62.9257 78.9328 62.8601 79.0107 62.775 79.0694L56.8788 83.1311C56.7927 83.1904 56.698 83.2228 56.6052 83.2298C56.4397 83.2431 56.2795 83.1775 56.1883 83.0413L56.0989 82.9075C55.9672 82.7107 56.0226 82.4359 56.2185 82.2658C56.2354 82.2505 56.2533 82.237 56.2719 82.2242L62.1681 78.1625C62.1867 78.1497 62.2066 78.1372 62.226 78.1276C62.4546 78.0064 62.7259 78.0561 62.8571 78.2521Z" fill="#B31717"/>
<path d="M62.9663 78.8478C62.9257 78.9328 62.8601 79.0107 62.775 79.0694L56.8787 83.1311C56.7926 83.1904 56.698 83.2228 56.6052 83.2298C56.4206 82.9274 56.2922 82.6021 56.2185 82.2658C55.908 80.8538 56.5557 79.2427 57.9434 78.2868C59.3321 77.3301 61.047 77.3137 62.226 78.1276C62.5068 78.321 62.7575 78.5621 62.9663 78.8478Z" fill="#FBB03B"/>
<path d="M62.9663 78.8478C62.9257 78.9328 62.8601 79.0107 62.775 79.0694L61.4484 79.9833C60.7168 80.1269 60.2336 80.1831 60.4099 80.0362C60.9503 79.5826 57.9434 78.2868 57.9434 78.2868C59.3321 77.3301 61.047 77.3137 62.226 78.1276C62.5068 78.321 62.7575 78.5621 62.9663 78.8478Z" fill="#DE841B"/>
<path d="M64.754 82.1615L58.9808 86.1384C58.7088 86.3257 58.3559 86.2798 58.1927 86.0358L57.9919 85.7357C57.8285 85.4916 57.9167 85.142 58.1887 84.9545L63.9619 80.9777C64.2338 80.7902 64.5867 80.8361 64.75 81.0802L64.9508 81.3804C65.1141 81.6244 65.026 81.9741 64.754 82.1615Z" fill="#FBB03B"/>
<path d="M63.5387 80.2113L57.6428 84.2728C57.4046 84.4369 57.0958 84.3967 56.9529 84.1831L56.8635 84.0496C56.7206 83.836 56.7977 83.5299 57.0358 83.3659L62.9317 79.3044C63.1699 79.1403 63.4787 79.1805 63.6217 79.3941L63.711 79.5276C63.8539 79.7412 63.7769 80.0473 63.5387 80.2113Z" fill="#F3BA0C"/>
<path d="M63.8166 80.6266L57.9206 84.6881C57.6825 84.8522 57.3736 84.812 57.2307 84.5984L57.1414 84.4649C56.9985 84.2513 57.0756 83.9451 57.3137 83.7811L63.2096 79.7196C63.4477 79.5556 63.7567 79.5959 63.8996 79.8095L63.989 79.9429C64.1319 80.1565 64.0547 80.4626 63.8166 80.6266Z" fill="#009245"/>
<path d="M64.0389 80.9588L58.1431 85.0204C57.905 85.1844 57.596 85.1441 57.453 84.9306L57.3637 84.7971C57.2208 84.5835 57.298 84.2774 57.536 84.1133L63.432 80.0518C63.6701 79.8877 63.979 79.9281 64.1219 80.1416L64.2113 80.2751C64.3542 80.4887 64.277 80.7948 64.0389 80.9588Z" fill="#B31717"/>
<path d="M62.8571 78.2521L62.9465 78.3858C63.0376 78.5221 63.0396 78.6967 62.9663 78.8478C62.9257 78.9328 62.8601 79.0107 62.775 79.0694L56.8788 83.1311C56.7927 83.1904 56.698 83.2228 56.6052 83.2298C56.4397 83.2431 56.2795 83.1775 56.1883 83.0413L56.0989 82.9075C55.9672 82.7107 56.0226 82.4359 56.2185 82.2658C56.2354 82.2505 56.2533 82.237 56.2719 82.2242L62.1681 78.1625C62.1867 78.1497 62.2066 78.1372 62.226 78.1276C62.4546 78.0064 62.7259 78.0561 62.8571 78.2521Z" fill="#B31717"/>
<path d="M59.6189 81.6323L57.3197 83.2155C57.209 83.2918 57.0651 83.2731 56.9985 83.1735C56.9319 83.0741 56.9678 82.9316 57.0785 82.8552L59.3777 81.272C59.4885 81.1957 59.6323 81.2145 59.6989 81.314C59.7655 81.4135 59.7297 81.556 59.6189 81.6323Z" fill="#ED1C24"/>
<path d="M62.6894 79.5171L60.3902 81.1003C60.2794 81.1766 60.1356 81.1579 60.069 81.0584C60.0023 80.9589 60.0382 80.8164 60.149 80.7401L62.4482 79.1568C62.5589 79.0806 62.7028 79.0994 62.7693 79.1988C62.836 79.2983 62.8002 79.4408 62.6894 79.5171Z" fill="#ED1C24"/>
</g>
<ellipse cx="72.3555" cy="77.0778" rx="69.8086" ry="16.0292" fill="#6750A4" fill-opacity="0.92"/>
<ellipse cx="68.582" cy="77.0778" rx="66.0352" ry="16.0292" fill="#141414"/>
<ellipse cx="71.7266" cy="77.0778" rx="55.3438" ry="12.3301" fill="#6750A4" fill-opacity="0.92"/>
<ellipse cx="73.6133" cy="78.3108" rx="45.9102" ry="9.86409" fill="#6750A4"/>
<g filter="url(#filter0_d_1_29)">
<ellipse cx="74.2422" cy="78.9273" rx="41.5078" ry="9.24759" fill="black"/>
</g>
<ellipse cx="76.7578" cy="82.0099" rx="26.4141" ry="6.16506" fill="black"/>
<g clip-path="url(#clip1_1_29)">
<path d="M81.0132 78.627H81.41V81.3154H81.0132V78.627Z" fill="url(#paint0_linear_1_29)"/>
<path d="M80.9312 79.2176H81.492V79.9713H80.9312V79.2176Z" fill="url(#paint1_linear_1_29)"/>
<path d="M90.5617 74.4349C90.6522 74.4342 90.7421 74.4396 90.833 74.4495C92.288 74.6086 93.213 76.0999 92.8967 77.7807C92.5804 79.4614 91.1427 80.6952 89.6877 80.5361C88.2327 80.377 87.3097 78.8841 87.626 77.2033C87.9226 75.6276 89.2039 74.4456 90.5617 74.4349Z" fill="url(#paint2_radial_1_29)"/>
<path d="M93.7108 77.8405C93.3689 79.5476 91.8167 80.8006 90.244 80.639C88.6711 80.4774 87.6733 78.9625 88.0152 77.2554C88.3571 75.5483 89.9093 74.2954 91.4821 74.457C93.0549 74.6186 94.0528 76.1334 93.7108 77.8405Z" fill="url(#paint3_linear_1_29)"/>
<path d="M93.939 77.9323C93.6297 79.5839 92.2254 80.796 90.8024 80.6397C89.3793 80.4834 88.4765 79.0178 88.7859 77.3662C89.0952 75.7145 90.4995 74.5024 91.9225 74.6587C93.3456 74.815 94.2484 76.2806 93.939 77.9323Z" fill="url(#paint4_linear_1_29)" stroke="url(#paint5_linear_1_29)" stroke-width="0.959105"/>
<path d="M91.8119 75.0888C91.8881 75.0882 91.965 75.0918 92.0416 75.1002C93.2671 75.2347 94.0437 76.4959 93.7773 77.9172C93.5109 79.3385 92.3024 80.3822 91.0769 80.2477C89.8513 80.1132 89.0727 78.8519 89.3391 77.4307C89.5889 76.0982 90.6682 75.0978 91.8119 75.0888Z" fill="url(#paint6_linear_1_29)"/>
<path d="M91.8499 75.4614C91.9141 75.4609 91.9791 75.4656 92.0436 75.4728C93.0762 75.5882 93.7321 76.6688 93.5077 77.8876C93.2832 79.1064 92.2633 80.001 91.2307 79.8857C90.1981 79.7703 89.5441 78.688 89.7686 77.4692C89.979 76.3266 90.8862 75.4692 91.8499 75.4614Z" fill="url(#paint7_radial_1_29)" stroke="url(#paint8_linear_1_29)" stroke-width="0.959105"/>
<path d="M84.0983 76.4771C83.7514 78.1695 82.1765 79.4116 80.5807 79.2514C78.9848 79.0913 77.9724 77.5895 78.3193 75.8971C78.6662 74.2047 80.2412 72.9626 81.8369 73.1228C83.4328 73.2829 84.4453 74.7847 84.0983 76.4771Z" fill="url(#paint9_linear_1_29)" stroke="url(#paint10_linear_1_29)"/>
<path d="M80.71 73.6026L80.3621 73.6545L81.0769 73.5537L80.71 73.6026Z" fill="#A7A7A7"/>
<path d="M82.4022 72.5569L82.2571 73.463L82.7898 73.5426L82.6406 73.3126L82.4022 72.5569Z" fill="url(#paint11_linear_1_29)"/>
<path d="M85.9016 67.5249C85.19 67.624 84.4635 67.6363 83.7754 67.8675C82.5426 68.2555 81.4411 69.3866 81.295 70.1983C81.0537 70.8386 80.9805 71.1412 80.8905 71.8042C80.8766 72.0112 80.8651 72.5606 80.8811 72.7671C80.9726 73.0467 81.0674 73.4079 81.378 73.5839C81.7401 73.7262 82.3294 73.586 82.3889 73.2295C82.4763 72.8661 82.3874 72.1318 82.3874 72.1318C82.3874 72.1318 82.4438 70.311 82.7569 69.7471C83.1719 68.9503 83.8249 68.1766 84.8139 67.7967C85.104 67.6501 85.4523 67.6291 85.774 67.5509C85.8165 67.5422 85.8591 67.5336 85.9016 67.525L85.9016 67.5249Z" fill="url(#paint12_linear_1_29)"/>
<path d="M80.5508 73.6032L80.8681 73.8136L81.4008 73.5838L80.8855 72.7569L80.5508 73.6032Z" fill="url(#paint13_linear_1_29)"/>
<path d="M80.5036 72.7199L80.2376 73.5686L80.5801 73.6032L80.9148 72.7598L80.5036 72.7199Z" fill="url(#paint14_linear_1_29)"/>
<path d="M91.7816 74.6319L92.3477 74.716L92.0958 74.6001L91.968 74.5233L91.7813 73.8839L91.7816 74.6319Z" fill="url(#paint15_linear_1_29)"/>
<path d="M85.9003 67.4369C85.4573 67.4996 85.0144 67.5623 84.5713 67.625C85.3019 67.583 86.0433 67.7063 86.6775 68.0084C87.844 68.5412 88.6321 69.4681 89.2532 70.405C89.8242 71.3463 89.9658 72.342 90.1431 73.435C90.1964 73.8159 90.244 74.0096 90.2632 74.1106C90.4446 74.302 90.6956 74.5678 90.877 74.7592L91.7829 74.6311C91.9022 73.1513 91.2672 71.8794 90.7894 70.6225C90.47 69.9204 89.9285 69.298 89.3498 68.7219C88.54 67.9702 87.3712 67.3788 86.1029 67.4345C86.0354 67.4347 85.9678 67.4354 85.9003 67.4369Z" fill="url(#paint16_linear_1_29)"/>
<path d="M90.3172 75.0032L90.9 74.7457L90.2603 74.0968L89.9385 74.9396L90.3172 75.0032Z" fill="url(#paint17_linear_1_29)"/>
<path d="M81.949 73.2006C80.5993 73.211 79.3262 74.3934 79.0314 75.9691C78.717 77.6502 79.6332 79.1427 81.0795 79.3019C82.5258 79.461 83.9546 78.2277 84.269 76.5471C84.5834 74.866 83.6652 73.3751 82.2189 73.216C82.1285 73.2061 82.039 73.2001 81.949 73.2006Z" fill="url(#paint18_radial_1_29)"/>
<path d="M82.0808 73.7579C80.9521 73.7667 79.8878 74.7549 79.6413 76.0719C79.3784 77.4763 80.1461 78.7227 81.3556 78.8561C82.5651 78.989 83.7588 77.9587 84.0218 76.5537C84.2847 75.1492 83.517 73.9029 82.3075 73.77C82.2319 73.7612 82.1561 73.7574 82.0808 73.7579Z" fill="url(#paint19_radial_1_29)"/>
<path d="M81.914 74.0822C80.9476 74.0899 80.0377 74.9387 79.8268 76.0702C79.6017 77.2767 80.2582 78.3486 81.2938 78.4629C82.3293 78.5772 83.3516 77.6901 83.5767 76.4837C83.8018 75.2772 83.1453 74.2069 82.1097 74.0926C82.045 74.0855 81.9784 74.0817 81.914 74.0822Z" fill="url(#paint20_radial_1_29)"/>
<path d="M81.5795 74.2273C80.7551 74.2342 79.978 75.0002 79.7979 76.0194C79.6059 77.1065 80.1668 78.0702 81.0503 78.1731C81.9337 78.276 82.8056 77.4779 82.9977 76.3908C83.1897 75.3037 82.6288 74.34 81.7453 74.237C81.6901 74.2306 81.6345 74.2269 81.5795 74.2273Z" fill="black"/>
<path d="M89.9638 74.9398L90.2633 74.1097L89.8485 74.0334L89.6582 74.8943L89.9638 74.9398Z" fill="url(#paint21_linear_1_29)"/>
<path d="M84.5717 67.625C83.373 67.7264 82.3926 68.4392 81.763 69.2333C81.2939 69.8787 80.957 70.5832 80.7242 71.3061C80.5757 71.7674 80.4861 72.3636 80.5038 72.7267C80.7001 72.7913 80.9149 72.7666 80.9149 72.7666C80.9149 72.7666 80.9098 72.1361 80.9427 71.9298C81.083 71.0524 81.2017 70.1421 81.7709 69.3657C82.4021 68.4333 83.5884 67.6618 84.9493 67.7008C86.2179 67.7165 87.3533 68.3278 88.1358 69.104C88.9719 69.9267 89.5519 70.9302 89.777 71.9814C89.8868 72.6604 89.9156 73.3503 89.8486 74.0332C90.0018 74.1062 90.2634 74.1095 90.2634 74.1095C90.2634 74.1095 90.2559 74.0427 90.2498 74.0096C90.0584 72.9778 89.9843 71.9208 89.5265 70.9358C89.1884 70.1549 88.6068 69.4567 87.9414 68.8361C87.0959 68.0741 85.8681 67.5157 84.5717 67.625Z" fill="url(#paint22_linear_1_29)"/>
</g>
<path d="M78.0545 90.0097C77.7144 90.6754 77.4379 91.4609 76.8956 92.0201C76.746 92.3129 76.2239 92.0955 75.8087 91.9035C75.0532 91.5542 74.2997 91.2003 73.5482 90.842C71.754 89.9864 69.9775 89.0956 68.2137 88.1832C67.8931 88.0173 67.384 87.8068 67.2028 87.5492C67.0362 87.3122 67.1871 87.0429 67.2391 86.862C67.6992 85.2599 68.581 83.8447 69.5614 82.4987C69.825 82.1368 70.5253 82.5595 71.0463 82.8153L73.5983 84.0684L78.154 86.3052C78.6713 86.5592 79.2009 87.463 79.0883 87.7373C78.7715 88.5075 78.4329 89.2684 78.0543 90.0093" fill="#7A7979"/>
<path d="M70.6941 85.1701L75.2454 87.4048C75.8076 87.6808 76.2323 87.893 76.4217 87.5222L77.1532 86.0906C77.1694 86.0588 77.305 85.8885 77.2368 85.855L76.5323 85.5091L73.7354 84.1358L71.4558 83.0166C71.114 82.8487 71.004 83.5239 70.9274 83.6738C70.8133 83.8971 69.9743 84.8167 70.6941 85.1701Z" fill="#494848"/>
<path d="M71.8976 90.0439C72.7647 90.4697 73.6364 90.8864 74.5104 91.2976C75.0625 91.5574 75.0213 91.5839 75.1558 91.3206L75.9217 89.8216C76.0405 89.5891 76.4941 89.1592 75.8291 88.8327L73.7749 87.8241L70.979 86.4514C70.546 86.2388 69.8421 85.7977 69.6661 86.1422L68.9945 87.4566L68.653 88.125C68.5203 88.3847 68.5099 88.3369 69.0445 88.6106C69.992 89.0951 70.9424 89.5745 71.898 90.0437" fill="#494848"/>
<path d="M71.8976 90.0439C72.7647 90.4697 73.6362 90.8863 74.5102 91.2976C74.9858 91.5213 74.8908 91.431 75.0094 91.1991L75.7675 89.7152C75.9091 89.4382 76.2181 89.1465 75.519 88.8032L73.127 87.6287L70.5948 86.3855C69.9211 86.0547 69.8043 86.2801 69.6484 86.5853L68.8885 88.0726L68.7044 88.4329C68.6955 88.4503 70.9939 89.5967 71.1849 89.6917C71.422 89.8098 71.6594 89.9274 71.8974 90.0443" fill="#E5E5E5"/>
<path d="M71.8628 85.7439L73.8963 86.7423C74.4934 87.0355 75.3187 87.5556 75.9492 87.7356C76.5456 87.906 76.7126 86.9529 76.8252 86.7325C76.8858 86.614 77.3873 85.9289 77.1688 85.8216L72.5338 83.5458C72.3949 83.4776 72.0475 84.3431 71.9962 84.4434C71.8876 84.6557 71.1771 85.4072 71.8628 85.7439Z" fill="#C6C6C6"/>
<path d="M76.9451 86.0069C76.7807 86.3286 73.5363 84.4077 73.1476 84.2547C72.6615 84.0636 72.4802 84.6172 72.3796 84.7823C72.3538 84.8247 72.2336 85.1175 72.0941 85.0507C71.8988 84.9573 72.0861 84.5856 72.1112 84.5284C72.1789 84.3747 72.2938 83.8012 72.6306 83.8484C73.1659 83.9234 73.9098 84.3717 74.4183 84.6183C74.6994 84.7546 77.0593 85.7835 76.9451 86.0069Z" fill="white"/>
<path d="M77.266 85.8889C77.2304 85.9585 72.416 83.5946 72.4515 83.5251C72.4907 83.4485 77.3051 85.8123 77.266 85.8889Z" fill="#AAAAAA"/>
<path d="M75.2531 87.0737L74.2772 86.5945C74.1372 86.5258 74.321 86.3463 74.3524 86.2847L74.7051 85.5944C74.7347 85.5364 74.8059 85.2076 74.9054 85.2023C75.0343 85.1957 75.723 85.6038 75.8813 85.6815C76.0214 85.7503 75.8375 85.9298 75.8061 85.9913L75.2531 87.0737Z" fill="#494848"/>
<path d="M75.248 87.1345C75.2264 87.1768 74.1425 86.6446 74.1641 86.6023C74.1858 86.5599 75.2697 87.092 75.248 87.1345Z" fill="white"/>
<path d="M75.9043 87.7932C75.9819 87.835 76.3148 87.8786 76.3387 87.8317C76.1679 88.1661 73.7722 86.8239 73.4387 86.6605C73.1288 86.5089 70.1437 85.1846 70.2906 84.8972C70.191 85.0921 72.572 86.1241 72.7896 86.2302C73.8311 86.7384 74.885 87.245 75.9043 87.7932Z" fill="#878787"/>
<path d="M75.1465 91.6005C75.1077 91.6765 68.5722 88.4676 68.611 88.3916C68.6503 88.3154 75.1855 91.5242 75.1465 91.6005Z" fill="#AAAAAA"/>
<path d="M71.0926 83.0279C71.0758 83.0608 69.8755 82.4734 69.769 82.6818C69.9162 82.3937 71.1362 82.9426 71.0926 83.0279Z" fill="#878787"/>
<path d="M77.3605 86.0711C77.3395 86.1121 77.9051 86.3783 77.9434 86.4059C78.1114 86.5268 78.227 86.6955 78.3282 86.831C78.4057 86.9348 78.8491 87.4501 78.8094 87.5276C78.8684 87.4123 78.5702 87.0023 78.4782 86.8612C78.3828 86.7149 78.2681 86.5578 78.1032 86.4227C78.0216 86.356 77.3888 86.0157 77.3605 86.0711Z" fill="#878787"/>
<path d="M75.5754 89.0453C75.5532 89.0886 72.3874 87.5048 71.8708 87.3091C70.6134 86.8328 69.7773 87.0438 69.3814 87.639C69.4915 87.4734 70.057 86.3388 70.2888 86.4389C70.8008 86.66 75.6066 88.9841 75.5754 89.0452" fill="white"/>
<path d="M69.4102 87.9606L74.8812 90.6469" stroke="#9A9999"/>
<path d="M69.2107 88.2744L74.713 90.976" stroke="#9A9999"/>
<g filter="url(#filter1_i_1_29)" class="eye2">
<ellipse cx="106.253" cy="56.3329" rx="14.5285" ry="13.7794" fill="#D9D9D9"/>
<ellipse cx="6.39255" cy="5.29979" rx="6.39255" ry="5.29979" transform="matrix(1 0 0 -1 105.672 64.8126)" fill="#1E1E1E"/>
</g>
<g filter="url(#filter2_i_1_29)" class="eye1">
<ellipse cx="43.4895" cy="88.1317" rx="14.5285" ry="14.8394" fill="#D9D9D9"/>
<ellipse cx="5.23027" cy="5.29979" rx="5.23027" ry="5.29979" transform="matrix(1 0 0 -1 30.1232 93.4315)" fill="#1E1E1E"/>
</g>
<g clip-path="url(#clip2_1_29)">
<path fill-rule="evenodd" clip-rule="evenodd" d="M100.838 77.6275C100.71 76.9285 98.5804 76.8614 97.9464 77.6275C97.6659 77.9157 96.7169 79.9611 96.908 83.2058C97.2087 84.408 98.3795 84.869 99.2084 83.9496L99.9272 82.8517C100.759 83.7694 101.721 83.2606 102.116 82.4444H102.962C103.272 83.0186 104.019 83.926 105.119 82.9048L105.79 83.9142C106.396 84.5966 107.046 84.7267 107.771 83.9142C108.375 83.1137 108.26 81.2472 107.947 79.7527C107.613 78.3637 107.539 78.1326 107.177 77.6416C106.461 76.8338 104.311 77.0537 104.211 77.6205C104.08 78.1746 103.61 78.1775 103.053 78.1411H101.946C100.979 78.2234 101.074 77.8553 100.838 77.6275L100.838 77.6275Z" fill="#698999"/>
<path d="M103.443 82.3951C103.383 82.1808 103.401 81.9486 103.495 81.7495C103.589 81.5505 103.75 81.4007 103.943 81.3331C104.136 81.2655 104.346 81.2857 104.525 81.3891C104.705 81.4925 104.841 81.6708 104.902 81.8848C104.963 82.0988 104.946 82.331 104.853 82.5306C104.76 82.7301 104.599 82.8807 104.406 82.9492C104.214 83.0177 104.004 82.9986 103.824 82.896C103.644 82.7935 103.507 82.6159 103.445 82.4021" fill="#303432"/>
<path d="M103.424 82.2888C103.362 82.0688 103.381 81.8305 103.477 81.6261C103.573 81.4217 103.739 81.268 103.937 81.1986C104.135 81.1293 104.35 81.1499 104.535 81.2561C104.719 81.3623 104.858 81.5453 104.922 81.765C104.985 81.9847 104.966 82.2231 104.871 82.4279C104.776 82.6328 104.611 82.7873 104.413 82.8576C104.215 82.928 104 82.9083 103.815 82.8031C103.63 82.6978 103.49 82.5155 103.426 82.2961" fill="#404643"/>
<path d="M100.182 82.3951C100.122 82.1808 100.14 81.9486 100.234 81.7495C100.328 81.5505 100.489 81.4007 100.682 81.3331C100.875 81.2655 101.085 81.2857 101.265 81.3891C101.444 81.4925 101.58 81.6708 101.641 81.8848C101.703 82.0988 101.685 82.331 101.592 82.5306C101.499 82.7301 101.339 82.8807 101.146 82.9492C100.953 83.0177 100.743 82.9986 100.563 82.896C100.383 82.7935 100.247 82.6159 100.184 82.4021" fill="#303432"/>
<path d="M97.621 80.4737C97.4877 80.0021 97.5287 79.4911 97.7349 79.0528C97.9411 78.6146 98.2957 78.285 98.7209 78.1362C99.1461 77.9875 99.6072 78.0318 100.003 78.2594C100.399 78.487 100.697 78.8794 100.832 79.3505C100.967 79.8215 100.928 80.3327 100.724 80.772C100.519 81.2112 100.166 81.5426 99.7411 81.6933C99.3165 81.8441 98.8553 81.802 98.4587 81.5763C98.062 81.3506 97.7624 80.9596 97.6254 80.4893" fill="url(#paint23_linear_1_29)"/>
<path d="M98.3194 80.2072C98.2431 79.937 98.2666 79.6444 98.3847 79.3934C98.5028 79.1425 98.7058 78.9537 98.9493 78.8685C99.1928 78.7834 99.4569 78.8087 99.6835 78.9391C99.9101 79.0695 100.081 79.2942 100.158 79.5639C100.236 79.8337 100.213 80.1264 100.096 80.3779C99.9791 80.6295 99.7767 80.8192 99.5336 80.9056C99.2904 80.9919 99.0263 80.9678 98.7991 80.8385C98.572 80.7093 98.4004 80.4854 98.3219 80.216" fill="#303432"/>
<path d="M99.234 78.8192C99.1374 78.8198 99.0415 78.8365 98.9494 78.8687C98.9391 78.8727 98.9289 78.8769 98.9188 78.8813L98.9288 79.5647L98.3208 79.5678C98.2614 79.7758 98.261 79.999 98.3194 80.2073L98.3196 80.208L98.9288 80.211L98.9188 80.8944C99.1171 80.9724 99.3331 80.9764 99.5336 80.9057C99.5425 80.9021 99.5513 80.8985 99.5601 80.8946L99.5502 80.211L100.158 80.2079C100.217 79.9997 100.218 79.7763 100.159 79.5678L99.5502 79.5647L99.5601 78.881C99.4554 78.8397 99.3451 78.8188 99.234 78.8191L99.234 78.8192Z" fill="#404643"/>
<path d="M100.163 82.2888C100.101 82.0688 100.12 81.8305 100.216 81.6261C100.313 81.4217 100.478 81.268 100.676 81.1986C100.875 81.1293 101.09 81.1499 101.274 81.2561C101.459 81.3623 101.598 81.5453 101.661 81.765C101.724 81.9847 101.706 82.2231 101.61 82.4279C101.515 82.6328 101.35 82.7873 101.152 82.8576C100.954 82.928 100.739 82.9083 100.554 82.8031C100.369 82.6978 100.229 82.5155 100.165 82.2961" fill="#404643"/>
<path d="M104.244 80.4737C104.111 80.0021 104.152 79.491 104.358 79.0528C104.565 78.6146 104.919 78.285 105.344 78.1362C105.77 77.9875 106.231 78.0319 106.626 78.2595C107.022 78.4871 107.32 78.8795 107.455 79.3504C107.59 79.8215 107.551 80.3327 107.347 80.772C107.142 81.2112 106.789 81.5426 106.364 81.6933C105.94 81.8441 105.479 81.8019 105.082 81.5762C104.685 81.3505 104.386 80.9596 104.249 80.4893" fill="url(#paint24_linear_1_29)"/>
<path d="M105.474 79.1359C105.444 79.0311 105.453 78.9175 105.499 78.8202C105.545 78.7228 105.624 78.6496 105.718 78.6165C105.813 78.5835 105.915 78.5933 106.003 78.6439C106.091 78.6945 106.157 78.7817 106.187 78.8863C106.217 78.991 106.208 79.1045 106.163 79.2021C106.118 79.2997 106.039 79.3733 105.945 79.4068C105.85 79.4403 105.748 79.431 105.66 79.3808C105.572 79.3307 105.505 79.2438 105.475 79.1393" fill="#FFFF00"/>
<path d="M104.658 80.0796C104.628 79.9748 104.638 79.8612 104.683 79.7639C104.729 79.6665 104.808 79.5933 104.902 79.5602C104.997 79.5272 105.099 79.537 105.187 79.5876C105.275 79.6382 105.341 79.7254 105.371 79.83C105.401 79.9347 105.393 80.0482 105.347 80.1458C105.302 80.2434 105.223 80.317 105.129 80.3505C105.035 80.384 104.932 80.3747 104.844 80.3245C104.756 80.2744 104.689 80.1875 104.659 80.083" fill="#000080"/>
<path d="M105.474 81.0233C105.444 80.9185 105.453 80.8049 105.499 80.7076C105.545 80.6102 105.624 80.537 105.718 80.5039C105.813 80.4709 105.915 80.4807 106.003 80.5313C106.091 80.5819 106.157 80.6691 106.187 80.7737C106.217 80.8784 106.208 80.9919 106.163 81.0895C106.118 81.1871 106.039 81.2607 105.945 81.2942C105.85 81.3277 105.748 81.3184 105.66 81.2682C105.572 81.2181 105.505 81.1312 105.475 81.0267" fill="#008000"/>
<path d="M106.289 80.0796C106.26 79.9748 106.269 79.8612 106.315 79.7639C106.36 79.6665 106.439 79.5933 106.534 79.5602C106.628 79.5272 106.731 79.537 106.818 79.5876C106.906 79.6382 106.973 79.7254 107.003 79.83C107.033 79.9347 107.024 80.0482 106.979 80.1458C106.933 80.2434 106.855 80.317 106.76 80.3505C106.666 80.384 106.564 80.3747 106.475 80.3245C106.387 80.2744 106.321 80.1875 106.29 80.083" fill="#FF0000"/>
<path fill-rule="evenodd" clip-rule="evenodd" d="M105.337 77.4984L105.404 77.1977C105.445 77.0679 105.99 77.0515 106.195 77.2601L106.52 77.6148C106.166 77.5113 105.766 77.47 105.337 77.4984Z" fill="#404643"/>
<path fill-rule="evenodd" clip-rule="evenodd" d="M99.713 77.4595L99.6456 77.1742C99.6049 77.0444 99.0602 77.028 98.8552 77.2366L98.532 77.6132C98.9074 77.5309 99.2168 77.4527 99.713 77.4595L99.713 77.4595Z" fill="#404643"/>
<path d="M103.617 80.1656H103.397C103.3 80.1656 103.221 80.2487 103.221 80.3511V80.3783C103.221 80.4807 103.3 80.5637 103.397 80.5637H103.617C103.714 80.5637 103.793 80.4807 103.793 80.3783V80.3511C103.793 80.2487 103.714 80.1656 103.617 80.1656Z" fill="#404643"/>
<path d="M101.704 80.1656H101.485C101.387 80.1656 101.308 80.2487 101.308 80.3511V80.3783C101.308 80.4807 101.387 80.5637 101.485 80.5637H101.704C101.801 80.5637 101.88 80.4807 101.88 80.3783V80.3511C101.88 80.2487 101.801 80.1656 101.704 80.1656Z" fill="#404643"/>
<path d="M103.845 79.094H103.625C103.528 79.094 103.449 79.1771 103.449 79.2795V79.3066C103.449 79.4091 103.528 79.4921 103.625 79.4921H103.845C103.942 79.4921 104.021 79.4091 104.021 79.3066V79.2795C104.021 79.1771 103.942 79.094 103.845 79.094Z" fill="#404643"/>
<path d="M101.472 79.094H101.252C101.155 79.094 101.076 79.1771 101.076 79.2795V79.3066C101.076 79.4091 101.155 79.4921 101.252 79.4921H101.472C101.569 79.4921 101.648 79.4091 101.648 79.3066V79.2795C101.648 79.1771 101.569 79.094 101.472 79.094Z" fill="#404643"/>
<path d="M107.537 83.8561C107.434 83.509 107.404 83.2596 107.404 82.7637C107.405 82.1147 107.47 81.7825 107.694 81.284C107.807 81.0311 107.896 80.7675 107.933 80.5719L107.992 80.2613L108.035 80.5041C108.256 81.7359 108.226 82.9498 107.958 83.5873C107.882 83.7694 107.677 84.0522 107.622 84.0522C107.607 84.0522 107.569 83.9639 107.537 83.8561L107.537 83.8561Z" fill="#404643"/>
<path d="M97.201 83.8695C96.9456 83.5036 96.9178 83.3941 96.9027 82.6945C96.8952 82.3482 96.9074 81.844 96.9299 81.574C96.9753 81.0268 97.0742 80.3052 97.1001 80.3324C97.1093 80.3422 97.1384 80.4686 97.1646 80.6135C97.1909 80.7584 97.2863 81.0556 97.3767 81.274C97.4672 81.4925 97.5636 81.7825 97.591 81.9187C97.6555 82.2386 97.656 82.9615 97.592 83.3114C97.5393 83.5995 97.41 83.9999 97.3589 84.0331C97.3424 84.0438 97.2713 83.9702 97.201 83.8694L97.201 83.8695Z" fill="#404643"/>
</g>
<defs>
<filter id="filter0_d_1_29" x="21.9344" y="60.8797" width="98.6156" height="34.0952" filterUnits="userSpaceOnUse" color-interpolation-filters="sRGB">
<feFlood flood-opacity="0" result="BackgroundImageFix"/>
<feColorMatrix in="SourceAlpha" type="matrix" values="0 0 0 0 0 0 0 0 0 0 0 0 0 0 0 0 0 0 127 0" result="hardAlpha"/>
<feMorphology radius="5" operator="dilate" in="SourceAlpha" result="effect1_dropShadow_1_29"/>
<feOffset dx="-3" dy="-1"/>
<feGaussianBlur stdDeviation="1.4"/>
<feComposite in2="hardAlpha" operator="out"/>
<feColorMatrix type="matrix" values="0 0 0 0 0 0 0 0 0 0 0 0 0 0 0 0 0 0 0.25 0"/>
<feBlend mode="normal" in2="BackgroundImageFix" result="effect1_dropShadow_1_29"/>
<feBlend mode="normal" in="SourceGraphic" in2="effect1_dropShadow_1_29" result="shape"/>
</filter>
<filter id="filter1_i_1_29" x="91.7242" y="42.5535" width="29.0571" height="31.5589" filterUnits="userSpaceOnUse" color-interpolation-filters="sRGB">
<feFlood flood-opacity="0" result="BackgroundImageFix"/>
<feBlend mode="normal" in="SourceGraphic" in2="BackgroundImageFix" result="shape"/>
<feColorMatrix in="SourceAlpha" type="matrix" values="0 0 0 0 0 0 0 0 0 0 0 0 0 0 0 0 0 0 127 0" result="hardAlpha"/>
<feOffset dy="4"/>
<feGaussianBlur stdDeviation="2.3"/>
<feComposite in2="hardAlpha" operator="arithmetic" k2="-1" k3="1"/>
<feColorMatrix type="matrix" values="0 0 0 0 1 0 0 0 0 1 0 0 0 0 1 0 0 0 1 0"/>
<feBlend mode="normal" in2="shape" result="effect1_innerShadow_1_29"/>
</filter>
<filter id="filter2_i_1_29" x="28.9609" y="73.2923" width="29.0571" height="33.6788" filterUnits="userSpaceOnUse" color-interpolation-filters="sRGB">
<feFlood flood-opacity="0" result="BackgroundImageFix"/>
<feBlend mode="normal" in="SourceGraphic" in2="BackgroundImageFix" result="shape"/>
<feColorMatrix in="SourceAlpha" type="matrix" values="0 0 0 0 0 0 0 0 0 0 0 0 0 0 0 0 0 0 127 0" result="hardAlpha"/>
<feOffset dy="4"/>
<feGaussianBlur stdDeviation="2"/>
<feComposite in2="hardAlpha" operator="arithmetic" k2="-1" k3="1"/>
<feColorMatrix type="matrix" values="0 0 0 0 1 0 0 0 0 1 0 0 0 0 1 0 0 0 1 0"/>
<feBlend mode="normal" in2="shape" result="effect1_innerShadow_1_29"/>
</filter>
<linearGradient id="paint0_linear_1_29" x1="80.8848" y1="79.9707" x2="81.5383" y2="79.9707" gradientUnits="userSpaceOnUse">
<stop stop-color="#D1D1D1"/>
<stop offset="0.5"/>
<stop offset="0.75" stop-color="#545454"/>
<stop offset="1"/>
</linearGradient>
<linearGradient id="paint1_linear_1_29" x1="80.9176" y1="79.594" x2="81.5053" y2="79.594" gradientUnits="userSpaceOnUse">
<stop stop-color="#D1D1D1"/>
<stop offset="0.5"/>
<stop offset="0.75" stop-color="#545454"/>
<stop offset="1"/>
</linearGradient>
<radialGradient id="paint2_radial_1_29" cx="0" cy="0" r="1" gradientTransform="matrix(3.92187 0.871657 -1.59841 4.51563 91.6117 75.3998)" gradientUnits="userSpaceOnUse">
<stop stop-color="#D1D1D1"/>
<stop offset="0.5"/>
<stop offset="0.75" stop-color="#545454"/>
<stop offset="1"/>
</radialGradient>
<linearGradient id="paint3_linear_1_29" x1="93.0335" y1="77.2237" x2="92.0581" y2="81.6166" gradientUnits="userSpaceOnUse">
<stop stop-color="#D1D1D1"/>
<stop offset="0.5"/>
<stop offset="0.75" stop-color="#545454"/>
<stop offset="1"/>
</linearGradient>
<linearGradient id="paint4_linear_1_29" x1="87.2421" y1="76.9362" x2="88.4977" y2="80.9024" gradientUnits="userSpaceOnUse">
<stop stop-color="#D1D1D1"/>
<stop offset="0.5"/>
<stop offset="0.75" stop-color="#545454"/>
<stop offset="1"/>
</linearGradient>
<linearGradient id="paint5_linear_1_29" x1="90.7248" y1="76.1595" x2="91.6346" y2="79.9333" gradientUnits="userSpaceOnUse">
<stop stop-color="#D1D1D1"/>
<stop offset="0.5"/>
<stop offset="0.75" stop-color="#545454"/>
<stop offset="1"/>
</linearGradient>
<linearGradient id="paint6_linear_1_29" x1="90.3152" y1="81.5222" x2="87.9743" y2="74.1418" gradientUnits="userSpaceOnUse">
<stop stop-color="#D1D1D1"/>
<stop offset="0.5"/>
<stop offset="0.75" stop-color="#545454"/>
<stop offset="1"/>
</linearGradient>
<radialGradient id="paint7_radial_1_29" cx="0" cy="0" r="1" gradientUnits="userSpaceOnUse" gradientTransform="translate(94.039 92.3059) rotate(180) scale(4.50958 8.59388)">
<stop stop-color="#D1D1D1"/>
<stop offset="0.5"/>
<stop offset="0.75" stop-color="#545454"/>
<stop offset="1"/>
</radialGradient>
<linearGradient id="paint8_linear_1_29" x1="92.4451" y1="80.1768" x2="91.3571" y2="75.0686" gradientUnits="userSpaceOnUse">
<stop stop-color="#D1D1D1"/>
<stop offset="0.5"/>
<stop offset="0.75" stop-color="#545454"/>
<stop offset="1"/>
</linearGradient>
<linearGradient id="paint9_linear_1_29" x1="81.2867" y1="75.5394" x2="81.3048" y2="81.5446" gradientUnits="userSpaceOnUse">
<stop stop-color="#D1D1D1"/>
<stop offset="0.5"/>
<stop offset="0.75" stop-color="#545454"/>
<stop offset="1"/>
</linearGradient>
<linearGradient id="paint10_linear_1_29" x1="80.3654" y1="73.5758" x2="81.5508" y2="78.9091" gradientUnits="userSpaceOnUse">
<stop stop-color="#D1D1D1"/>
<stop offset="0.5"/>
<stop offset="0.75" stop-color="#545454"/>
<stop offset="1"/>
</linearGradient>
<linearGradient id="paint11_linear_1_29" x1="81.8955" y1="72.4355" x2="83.1552" y2="73.5153" gradientUnits="userSpaceOnUse">
<stop stop-color="#D1D1D1"/>
<stop offset="0.5"/>
<stop offset="0.75" stop-color="#545454"/>
<stop offset="1"/>
</linearGradient>
<linearGradient id="paint12_linear_1_29" x1="81.65" y1="79.3786" x2="82.8089" y2="67.4674" gradientUnits="userSpaceOnUse">
<stop stop-color="#D1D1D1"/>
<stop offset="0.5"/>
<stop offset="0.75" stop-color="#545454"/>
<stop offset="1"/>
</linearGradient>
<linearGradient id="paint13_linear_1_29" x1="80.292" y1="73.3948" x2="81.6236" y2="72.5141" gradientUnits="userSpaceOnUse">
<stop stop-color="#D1D1D1"/>
<stop offset="0.5"/>
<stop offset="0.75" stop-color="#545454"/>
<stop offset="1"/>
</linearGradient>
<linearGradient id="paint14_linear_1_29" x1="80.5804" y1="73.603" x2="80.8217" y2="71.9126" gradientUnits="userSpaceOnUse">
<stop stop-color="#D1D1D1"/>
<stop offset="0.5"/>
<stop offset="0.75" stop-color="#545454"/>
<stop offset="1"/>
</linearGradient>
<linearGradient id="paint15_linear_1_29" x1="92.3474" y1="74.2999" x2="90.1631" y2="72.454" gradientUnits="userSpaceOnUse">
<stop stop-color="#D1D1D1"/>
<stop offset="0.5"/>
<stop offset="0.75" stop-color="#545454"/>
<stop offset="1"/>
</linearGradient>
<linearGradient id="paint16_linear_1_29" x1="91.8451" y1="73.6046" x2="93.0601" y2="88.5969" gradientUnits="userSpaceOnUse">
<stop stop-color="#D1D1D1"/>
<stop offset="0.5"/>
<stop offset="0.75" stop-color="#545454"/>
<stop offset="1"/>
</linearGradient>
<linearGradient id="paint17_linear_1_29" x1="90.8246" y1="74.4811" x2="89.4301" y2="76.407" gradientUnits="userSpaceOnUse">
<stop stop-color="#D1D1D1"/>
<stop offset="0.5"/>
<stop offset="0.75" stop-color="#545454"/>
<stop offset="1"/>
</linearGradient>
<radialGradient id="paint18_radial_1_29" cx="0" cy="0" r="1" gradientTransform="matrix(7.03217 1.56288 -2.86603 8.14771 81.7005 73.9566)" gradientUnits="userSpaceOnUse">
<stop stop-color="#D1D1D1"/>
<stop offset="0.5"/>
<stop offset="0.75" stop-color="#545454"/>
<stop offset="1"/>
</radialGradient>
<radialGradient id="paint19_radial_1_29" cx="0" cy="0" r="1" gradientTransform="matrix(2.25019 0.489587 -0.916789 2.60776 81.9773 76.5998)" gradientUnits="userSpaceOnUse">
<stop stop-color="#D1D1D1"/>
<stop offset="0.5"/>
<stop offset="0.75" stop-color="#545454"/>
<stop offset="1"/>
</radialGradient>
<radialGradient id="paint20_radial_1_29" cx="0" cy="0" r="1" gradientTransform="matrix(4.46727 0 -0.134376 5.21988 81.7633 77.1293)" gradientUnits="userSpaceOnUse">
<stop stop-color="#D1D1D1"/>
<stop offset="0.5"/>
<stop offset="0.75" stop-color="#545454"/>
<stop offset="1"/>
</radialGradient>
<linearGradient id="paint21_linear_1_29" x1="89.2216" y1="75.8969" x2="90.3975" y2="72.9347" gradientUnits="userSpaceOnUse">
<stop stop-color="#D1D1D1"/>
<stop offset="0.5"/>
<stop offset="0.75" stop-color="#545454"/>
<stop offset="1"/>
</linearGradient>
<linearGradient id="paint22_linear_1_29" x1="87.4701" y1="65.2336" x2="83.1293" y2="83.336" gradientUnits="userSpaceOnUse">
<stop stop-color="#D1D1D1"/>
<stop offset="0.5"/>
<stop offset="0.75" stop-color="#545454"/>
<stop offset="1"/>
</linearGradient>
<linearGradient id="paint23_linear_1_29" x1="99.1441" y1="81.7327" x2="99.1441" y2="78.0559" gradientUnits="userSpaceOnUse">
<stop stop-color="#7694A2"/>
<stop offset="1" stop-color="#7694A2" stop-opacity="0"/>
</linearGradient>
<linearGradient id="paint24_linear_1_29" x1="105.768" y1="81.6316" x2="105.685" y2="77.8829" gradientUnits="userSpaceOnUse">
<stop stop-color="#7694A2"/>
<stop offset="1" stop-color="#7694A2" stop-opacity="0"/>
</linearGradient>
<clipPath id="clip0_1_29">
<rect width="8.72651" height="7.46582" fill="white" transform="matrix(0.746362 -0.665541 0.680205 0.733022 54.1172 81.6527)"/>
</clipPath>
<clipPath id="clip1_1_29">
<rect width="16.3516" height="13.5631" fill="white" transform="translate(78.0156 67.2137)"/>
</clipPath>
<clipPath id="clip2_1_29">
<rect width="11.3203" height="7.39807" fill="white" transform="translate(96.8828 77.0778)"/>
</clipPath>
</defs>


</svg>

